<?xml version="1.0" encoding="UTF-8"?>
<svg width="38px" height="38px" viewBox="0 0 38 38" version="1.1" xmlns="http://www.w3.org/2000/svg" xmlns:xlink="http://www.w3.org/1999/xlink">
    <!-- Generator: Sketch 59.1 (86144) - https://sketch.com -->
    <title>Combined shape 1706</title>
    <desc>Created with Sketch.</desc>
    <g id="Pages" stroke="none" stroke-width="1" fill="none" fill-rule="evenodd" opacity="0.5">
        <g id="Index" transform="translate(-175.000000, -2349.000000)" fill="#FFFFFF">
            <g id="Подвал" transform="translate(26.000000, 2310.000000)">
                <g id="Соцсети" transform="translate(0.000000, 38.000000)">
                    <g id="ВК" transform="translate(148.000000, 0.000000)">
                        <path d="M19.9254,1.23696 C30.20868,1.23696 38.54488,9.57336 38.54488,19.85672 C38.54488,30.14 30.20868,38.47596 19.9254,38.47596 C9.64204,38.47596 1.3058,30.14 1.3058,19.85672 C1.3058,9.57336 9.64204,1.23696 19.9254,1.23696 Z M19.86476,4.22772 C11.19844,4.22772 4.173,11.25308 4.173,19.91932 C4.173,28.5856 11.19844,35.6112 19.86476,35.6112 C28.531,35.6112 35.55644,28.5856 35.55644,19.91932 C35.55644,11.25308 28.531,4.22772 19.86476,4.22772 Z" id="Combined-shape-1706"></path>
                    </g>
                </g>
            </g>
        </g>
    </g>
</svg>