<?xml version="1.0" encoding="UTF-8"?>
<svg width="21px" height="21px" viewBox="0 0 21 21" version="1.1" xmlns="http://www.w3.org/2000/svg" xmlns:xlink="http://www.w3.org/1999/xlink">
    <!-- Generator: Sketch 59.1 (86144) - https://sketch.com -->
    <title>Combined shape 124</title>
    <desc>Created with Sketch.</desc>
    <g id="Pages" stroke="none" stroke-width="1" fill="none" fill-rule="evenodd">
        <g id="Index" transform="translate(-56.000000, -563.000000)" fill="#FFFFFF">
            <g id="Фон" transform="translate(-25.000000, 0.000000)">
                <g id="1">
                    <g id="Листалка" transform="translate(51.000000, 562.000000)">
                        <path d="M40.499747,1.227349 C46.172881,1.227349 50.771823,5.826429 50.771823,11.499494 C50.771823,17.172559 46.172881,21.771363 40.499747,21.771363 C34.826636,21.771363 30.227763,17.172559 30.227763,11.499494 C30.227763,5.826429 34.826636,1.227349 40.499747,1.227349 Z M40.499747,3.131657 C35.878564,3.131657 32.132347,6.878081 32.132347,11.499494 C32.132347,16.120608 35.878564,19.866894 40.499747,19.866894 C45.120953,19.866894 48.867239,16.120608 48.867239,11.499494 C48.867239,6.878081 45.120953,3.131657 40.499747,3.131657 Z" id="Combined-shape-124"></path>
                    </g>
                </g>
            </g>
        </g>
    </g>
</svg>